<?xml version="1.0" encoding="UTF-8"?>
<!DOCTYPE svg PUBLIC "-//W3C//DTD SVG 1.1//EN" "http://www.w3.org/Graphics/SVG/1.1/DTD/svg11.dtd">
<!-- Creator: CorelDRAW X7 -->
<svg xmlns="http://www.w3.org/2000/svg" xml:space="preserve" width="210mm" height="297mm" version="1.1" style="shape-rendering:geometricPrecision; text-rendering:geometricPrecision; image-rendering:optimizeQuality; fill-rule:evenodd; clip-rule:evenodd"
viewBox="0 0 21000 29700"
 xmlns:xlink="http://www.w3.org/1999/xlink">
 <defs>
  <style type="text/css">
   <![CDATA[
    .fil2 {fill:#EF7F1A}
    .fil1 {fill:#6B214A}
    .fil0 {fill:#007AB4}
   ]]>
  </style>
 </defs>
 <g id="Layer_x0020_1">
  <metadata id="CorelCorpID_0Corel-Layer"/>
  <g id="_2140198686288">
   <path class="fil0" d="M4899 12072l3370 0c114,0 208,94 208,208l0 5140c0,114 -94,208 -208,208l-349 0 0 -232 -207 0c-234,0 -350,-146 -350,-438l0 -4016 -1146 63 0 232 200 0c283,0 426,97 426,289l0 1655c-217,-371 -517,-557 -897,-557 -346,0 -644,143 -890,429 -219,253 -341,571 -365,951l0 -3724c0,-114 94,-208 208,-208zm2018 5556l-699 0c244,-90 452,-286 625,-589l74 589zm-1380 0l-638 0c-114,0 -208,-94 -208,-208l0 -1116c23,382 136,700 340,952 146,182 315,306 506,372zm492 -2761c-493,0 -739,399 -739,1196 0,889 243,1333 732,1333 242,0 440,-116 592,-351 153,-233 229,-558 229,-976 0,-359 -77,-648 -232,-870 -154,-221 -349,-332 -582,-332z"/>
   <path class="fil1" d="M12731 12072l3370 0c114,0 208,94 208,208l0 5140c0,114 -94,208 -208,208l-41 0 0 -226 -251 0c-188,0 -282,-86 -282,-257l0 -1390c0,-362 -81,-642 -245,-838 -162,-196 -390,-294 -683,-294 -401,0 -758,197 -1067,594l-1 -2270 -1008 58 0 -725c0,-114 94,-208 208,-208zm1744 5556l-418 0 0 -226 -250 0c-100,0 -171,-21 -213,-62 -41,-42 -63,-118 -63,-226l0 -1163c0,-279 84,-510 252,-694 166,-183 360,-275 577,-275 201,0 360,70 475,210 115,139 172,328 172,566l0 1387c0,171 -116,257 -351,257l-181 0 0 226zm-1952 -226l0 -4160 106 0c259,0 389,125 389,376l0 3496c0,191 -110,288 -332,288l-163 0z"/>
   <path class="fil2" d="M8815 12072l3370 0c114,0 208,94 208,208l0 5140c0,114 -94,208 -208,208l-1429 0c266,-59 489,-198 669,-419 246,-300 369,-677 369,-1127 0,-459 -116,-824 -347,-1092 -232,-270 -533,-405 -904,-405 -337,0 -629,174 -875,520l1 -2188 -1062 63 0 -700c0,-114 94,-208 208,-208zm1382 5556l-979 0c51,-55 100,-115 145,-181 54,-79 110,-167 168,-263 207,235 429,383 666,444zm-1089 0l-293 0c-114,0 -208,-94 -208,-208l0 -4209 123 0c129,0 231,30 307,87 75,59 112,141 112,245l0 3314c0,118 -8,244 -24,380 -17,136 -39,260 -63,372l46 19zm1354 -2760c-529,0 -793,451 -793,1353 0,404 68,711 203,920 135,208 324,313 564,313 242,0 431,-116 571,-351 139,-233 209,-536 209,-908 0,-884 -251,-1327 -754,-1327z"/>
  </g>
 </g>
</svg>
